<svg xmlns="http://www.w3.org/2000/svg" width="21.765" height="46.627" viewBox="0 0 21.765 46.627">
  <path id="Tilda_Icons_26snw_facebook" d="M7.173,2.4A10.2,10.2,0,0,1,14.018.014C16.6-.009,19.178,0,21.756,0c.011,2.727.011,5.442,0,8.168h-5a2.3,2.3,0,0,0-2.331,1.788c-.023,1.822-.011,3.643-.011,5.464,2.443.011,4.888,0,7.331.011-.181,2.636-.509,5.261-.893,7.863-2.161.023-4.322,0-6.483.011-.023,7.772.011,15.533-.011,23.306-3.213.011-6.415-.011-9.628.011-.057-7.772,0-15.545-.034-23.318C3.134,23.3,1.561,23.321,0,23.3c.011-2.614,0-5.227,0-7.829,1.561-.023,3.134,0,4.7-.011.045-2.534-.045-5.08.045-7.614A8.3,8.3,0,0,1,7.173,2.4Z" fill="#fff"/>
</svg>
