<svg xmlns="http://www.w3.org/2000/svg" width="43.389" height="43.558" viewBox="0 0 43.389 43.558">
  <g id="instagram" transform="translate(-1432 -3075.363)">
    <path id="Path_328" data-name="Path 328" d="M25.987,14.786A11.206,11.206,0,1,0,37.312,25.992,11.279,11.279,0,0,0,25.987,14.786Zm0,18.285a7.081,7.081,0,1,1,7.2-7.08A7.149,7.149,0,0,1,25.987,33.071Z" transform="translate(1427.744 3071.07)" fill="#fff"/>
    <path id="Path_329" data-name="Path 329" d="M30.9,0H12.489A12.5,12.5,0,0,0,0,12.489v18.58A12.5,12.5,0,0,0,12.489,43.558H30.9A12.5,12.5,0,0,0,43.389,31.069V12.489A12.5,12.5,0,0,0,30.9,0Zm8.356,31.069A8.365,8.365,0,0,1,30.9,39.424H12.489a8.365,8.365,0,0,1-8.356-8.356V12.489a8.365,8.365,0,0,1,8.356-8.356H30.9a8.365,8.365,0,0,1,8.356,8.356Z" transform="translate(1432 3075.363)" fill="#fff"/>
    <ellipse id="Ellipse_23" data-name="Ellipse 23" cx="2.665" cy="2.665" rx="2.665" ry="2.665" transform="translate(1462.593 3082.734)" fill="#fff"/>
  </g>
</svg>
