<svg xmlns="http://www.w3.org/2000/svg" width="39.388" height="37.637" viewBox="0 0 39.388 37.637">
  <path id="LinkedIn_1_" d="M39.388,23.075V37.637H30.945V24.05c0-3.413-1.221-5.742-4.276-5.742A4.62,4.62,0,0,0,22.337,21.4a5.774,5.774,0,0,0-.28,2.058V37.637H13.612s.114-23.011,0-25.395h8.444v3.6c-.017.027-.039.056-.055.082h.055v-.082a8.384,8.384,0,0,1,7.61-4.2C35.223,11.645,39.388,15.275,39.388,23.075ZM4.778,0C1.889,0,0,1.895,0,4.387a4.374,4.374,0,0,0,4.667,4.39h.056c2.945,0,4.776-1.952,4.776-4.39A4.386,4.386,0,0,0,4.778,0ZM.5,37.637H8.943V12.242H.5Z" fill="#fff"/>
</svg>
